/* XPM */
static char *_fde812bd38746fa9b5dae62595328b1bFNBMuYe84v76adm[] = {
/* columns rows colors chars-per-pixel */
"32 32 199 2 ",
"   c #1E172D",
".  c #291A34",
"X  c #301E3F",
"o  c #2B2139",
"O  c #6F6F1F",
"+  c #6F711D",
"@  c #71741B",
"#  c #78781F",
"$  c #5E5039",
"%  c #665D31",
"&  c #6A5E35",
"*  c #655839",
"=  c #6C5C3D",
"-  c #735C3B",
";  c #6A6727",
":  c #6E6C23",
">  c #666229",
",  c #6D662C",
"<  c #6E6A29",
"1  c #716E23",
"2  c #726A2C",
"3  c #737321",
"4  c #767924",
"5  c #777628",
"6  c #797B2C",
"7  c #6E6233",
"8  c #6D6038",
"9  c #746634",
"0  c #736A32",
"q  c #79633B",
"w  c #79693B",
"e  c #7C7E36",
"r  c #797839",
"t  c #2E1D44",
"y  c #381F4E",
"u  c #362647",
"i  c #3F244E",
"p  c #3A2353",
"a  c #462257",
"s  c #4B2057",
"d  c #44245B",
"f  c #4C235C",
"g  c #412A5B",
"h  c #4B2C5F",
"j  c #532E5C",
"k  c #4E3652",
"l  c #50305D",
"z  c #59305A",
"x  c #5E3D5C",
"c  c #4B2566",
"v  c #4B2966",
"b  c #4D2669",
"n  c #542D63",
"m  c #52276E",
"M  c #5A2768",
"N  c #54296E",
"B  c #543365",
"V  c #5F3365",
"C  c #5B326B",
"Z  c #583A6C",
"A  c #5F2771",
"S  c #572A71",
"D  c #5B2B74",
"F  c #5F2C79",
"G  c #5B3474",
"H  c #5E3C75",
"J  c #5E3778",
"K  c #653D65",
"L  c #6A3967",
"P  c #62366D",
"I  c #66396C",
"U  c #703868",
"Y  c #6E2576",
"T  c #612E74",
"R  c #622D7A",
"E  c #6C2B7C",
"W  c #75267B",
"Q  c #722A7C",
"!  c #643373",
"~  c #683475",
"^  c #623B72",
"/  c #6C3970",
"(  c #64327B",
")  c #6D337F",
"_  c #643A7C",
"`  c #6C3C7D",
"'  c #75387E",
"]  c #5B4A48",
"[  c #5E4253",
"{  c #644B4C",
"}  c #694F4D",
"|  c #655143",
" . c #6B5545",
".. c #645945",
"X. c #6E5942",
"o. c #6B534A",
"O. c #725C43",
"+. c #7D5F45",
"@. c #78504D",
"#. c #7D594D",
"$. c #624455",
"%. c #674953",
"&. c #6A4D51",
"*. c #66445C",
"=. c #68455C",
"-. c #6A4859",
";. c #6C5451",
":. c #7E5452",
">. c #725759",
",. c #7D6343",
"<. c #756844",
"1. c #7A6652",
"2. c #664162",
"3. c #694763",
"4. c #754366",
"5. c #7F5266",
"6. c #6F417D",
"7. c #66497D",
"8. c #754270",
"9. c #7B5A7A",
"0. c #817729",
"q. c #86575F",
"w. c #865A5C",
"e. c #816546",
"r. c #81664A",
"t. c #837D4C",
"y. c #826053",
"u. c #824768",
"i. c #875465",
"p. c #8A5665",
"a. c #8A5A61",
"s. c #8A536B",
"d. c #884177",
"f. c #81457B",
"g. c #8B457A",
"h. c #914F7A",
"j. c #8B5370",
"k. c #85873E",
"l. c #8A8D44",
"z. c #91934E",
"x. c #949654",
"c. c #6C2F83",
"v. c #742C84",
"b. c #742F88",
"n. c #6C3083",
"m. c #6D3D84",
"M. c #723384",
"N. c #703F87",
"B. c #76368A",
"V. c #7B338D",
"C. c #6F4183",
"Z. c #694B80",
"A. c #734B83",
"S. c #764D8A",
"D. c #7B4C8B",
"F. c #775387",
"G. c #7A548E",
"H. c #7D5291",
"J. c #873E80",
"K. c #82358E",
"L. c #85398C",
"P. c #8B3F8E",
"I. c #843494",
"U. c #8A3A96",
"Y. c #8C349B",
"T. c #923995",
"R. c #94369C",
"E. c #923D9B",
"W. c #9B3E9D",
"Q. c #9436A1",
"!. c #9936A5",
"~. c #9538A4",
"^. c #9B3CA3",
"/. c #9F37AA",
"(. c #9D3AA9",
"). c #A33BAD",
"_. c #A53AB2",
"`. c #A53CB1",
"'. c #A73DB3",
"]. c #A83DB4",
"[. c #8C4582",
"{. c #894586",
"}. c #944C83",
"|. c #934887",
" X c #99478F",
".X c #9E4B8D",
"XX c #8A409B",
"oX c #994593",
"OX c #9B4891",
"+X c #845C96",
"@X c #A8588B",
"#X c #A45096",
"$X c #866099",
"%X c #9840A6",
"&X c #A241A6",
"*X c #B14CA6",
"=X c #B957A3",
"-X c #BA56A2",
";X c #C35BA9",
/* pixels */
"@ @ @ @ @ @ @ @ @ @ @ @ 1 < 7 X.-.( R D S R ( 2.&. .7 1 @ @ @ @ ",
"@ @ @ @ @ @ @ @ @ @ @ : , = &.=.! R F N N F R P K =.= ; @ @ @ @ ",
"@ @ @ @ @ @ @ @ @ @ : ; * [ V ! R R S b c m S D T ! %.7 : 3 @ @ ",
"@ @ @ @ @ @ @ 3 1 : < & { l m F R F D S N m b N F R K ;.w < : @ ",
"@ @ @ @ @ 3 : : 0 #.5.[.P.I.M.b.c.R F R R F N D R ( 6.9.>.8 ; + ",
"@ @ @ @ @ 3 9 p.OX).'.].].'.'.).~.I.R S S N b S R m.9.>.O.2 : + ",
"@ @ @ @ 3 w.oX'.'.'.)./.!./.).'.'.'.Y.D c c c m _ F.3.X.9 1 @ @ ",
"@ @ @ 3 a.).'.).W.|.[.) R b.I.Q.).'.'.~.R N D m.H.6.%.8 ; 1 @ @ ",
"@ @ @ a.)._.W.s.r.t.1.C R c.c.c.V.Q.).].Q.n.N.H.m.! o.7 : @ @ @ ",
"@ @ a.)./.[.+.2 5 r 5.K.Y.Y.I.Y.K.M.Y.).'.XXH.m.R ! o., : @ @ @ ",
"@ w &X/.g.2 : 7 2 j.E.B.F S R V.E.P.R Y.'.%X( D R ! } & ; : @ @ ",
"3 j.).J.2 + @ 1 w.L.` S.J b m F T [.{.M.Y.(.S N R ( 2.} & < 3 @ ",
"e.&XT.- + 1 @ ,.[.L ! m.G._ D R F V #XS.N I.c.D R R P *. ., 1 @ ",
"e.W.4.O @ O 2 f.! C G S G Z d b N C .X` p A R R R D V $.| , : @ ",
"2 g.- @ 3 1 9 4.C G Z.g a M . i g i j v g d A E R D x | % ; : @ ",
"+.d.1 : : 7 &.2.P ` 7.p f s n ^ u   p C.H f A v.c.! %.& ; : @ @ ",
"#.u.@ O : < 8 = o.^ g t a h D.Z o u ~ ^ d a d Y.V.I  .2 : @ @ @ ",
"#.:.@ @ @ , *.I ! N C z a H $XH.A.+XG.h Y Y v.Q.M.2.O.0 1 @ @ @ ",
"q q @ @ @ < %.I P ' =X.X' U.) E ) C.D.Q W Q !.I.P ;.<.r 1 @ @ @ ",
"@ @ @ @ @ @ : 2 O.[.=XL S.(.R.v.E R M.K.K.Q.Q.P %.o.<.0 : : 1 @ ",
"@ @ @ @ @ @ @ , $.{.=Xz C n.(.).!.Y.Y./.).^.c.V  .= = 7 ; 0 q.1 ",
"@ @ @ @ @ @ : | x f.;XU y b R I.R./.(.Y.B.A.B B { = , , ; i.i.@ ",
"@ @ @ @ @ @ @ ; , 1.=X[.X c m D P ~ R n k ] ..] % ; : O ,.oX,.@ ",
"@ @ @ @ @ @ @ @ @ 2 @X=XL c R ! } } K [ $ > : : + @ @ ,.oXp.@ @ ",
"@ @ @ @ @ @ @ @ @ , 8.=X*XB.R I 8 : < < ; : @ @ @ 1 r.oXp.3 @ @ ",
"@ @ @ @ @ @ @ @ @ ; [ s.*X&XL./ O.3 @ + : : + @ q g.^.p.@ @ @ @ ",
"@ @ @ @ @ @ @ @ @ @ ; , s.&X).T.u.@.- - - - :.g.^.W.a.3 @ @ @ @ ",
"@ @ # @ @ @ @ @ @ @ @ 1 0 y.}.^./.!.R.R.R.^./.W.h.,.@ @ @ @ @ @ ",
"@ 4 z.l.z.l.k.@ @ @ @ 3 r 2 2 w w.}. X XOXh.w.w 6 4 @ @ @ @ @ @ ",
"@ 4 l.x.x.x.l.4 4 @ @ @ 3 @ @ @ @ 3 3 5 0.3 @ 4 e 6 @ @ @ @ @ @ ",
"@ @ @ @ @ @ # 6 6 6 4 @ @ @ @ # # @ @ @ # @ @ # 4 3 @ @ @ @ @ @ ",
"@ @ @ @ @ @ @ 3 5 e e 3 @ @ @ # # @ @ @ @ @ @ @ @ @ @ @ @ @ @ @ "
};
