/* XPM */
static char *cc646c41e1c44f17c775d21732a5c98akTwbxyiZ1Yiju7QC[] = {
/* columns rows colors chars-per-pixel */
"32 32 48 1 ",
"  c #72751B",
". c #72751C",
"X c #74771D",
"o c #78771E",
"O c #75781D",
"+ c #78781E",
"@ c #534721",
"# c #747721",
"$ c #7B7921",
"% c #7C7921",
"& c #7F7F38",
"* c #472278",
"= c #0E6349",
"- c #2E4C60",
"; c #7A6843",
": c #767674",
"> c #C70000",
", c #FF2627",
"< c #8B7F2A",
"1 c #8D7D56",
"2 c #7F8147",
"3 c #8F8229",
"4 c #C79D00",
"5 c #E3B700",
"6 c #FFD600",
"7 c #FFFC00",
"8 c #CA9E73",
"9 c #C2AE6D",
"0 c #5E34A9",
"q c #126DB3",
"w c #476BBE",
"e c #6F5BF7",
"r c #7DCAB2",
"t c #2196FC",
"y c #43AEFF",
"u c #B8B7B4",
"i c #DDBD9C",
"p c #DFD796",
"a c #EEDAB3",
"s c #9194FF",
"d c #A3D3FF",
"f c #DAD9D6",
"g c #FDF0C5",
"h c #F2F0D1",
"j c #D0E1FF",
"k c #FFFEF2",
"l c #F7FFFE",
"z c white",
/* pixels */
"    ..                          ",
"             111@111            ",
"           11@9@7@9@11          ",
"          19@7@666@7@91         ",
"         19p6>55,55>6p91   XO.  ",
"        19p@45ppppp54@p91  $<+  ",
"X      19pp4phhhhhhhp4pp91X3%% .",
".      19ppppppppppppppp91 o   .",
"      19ppp9pp9ppp9pp9ppp91     ",
"    ;;19p9p9pp9ppp9pp9p9p91;;   ",
"   ;ia8;p9p9pp9ppp9pp9p9p;8ai;  ",
"    ;iaipp9a999999999a9ppiai;   ",
"     ;8ippawwwgggggwwwappi8;    ",
"     1;8ppwl=kgggggk=lwpp8;1    ",
"   .119;hpwz=rgggggr=zwph;911   ",
"    191phpazqqgggggqqzaphp191   ",
"    191pppiattgggggttaippp1991  ",
"    191ppp;iagggggggai;pp91991  ",
"    191ppp0;8iaaaaai8;ppp1*p991 ",
"    19*pppfu;;;;;;;;;upp91*9p91 ",
"    1*u9pe0eyydaaadyyepp9se*p91 ",
"     ;89p0*esddjdjddsep9szs*991 ",
"     ;889***essejesse*9djzs*91  ",
"     *;;**-y0000e0000y;ggyz*1.  ",
"    *0u:**-ydjdsssdjdy;ggazu*.  ",
"    *ef:**y0ydujjjudy0;ia8;f*   ",
"   *0sz:*00esuffffusse0;;;:f0*  ",
"  *0esz:0essfzzzzzffsse00*:u00* ",
" *0essz:0ssuuufffuuusse00**:uu: ",
" :ufzz:*0ssfzzzzzzzfuee0***:::  ",
"  :::: &*0euuffzzffuu0**#       ",
"        .22#   .%   O.          "
};
