/* XPM */
static const char *VFgrVGlsZXNldCtHcmFzcyslMjgxJTI5[] = {
/* columns rows colors chars-per-pixel */
"32 32 114 2 ",
"   c #72751B",
".  c #72741A",
"X  c #71751B",
"o  c #73771D",
"O  c #72751C",
"+  c #71741A",
"@  c #71741B",
"#  c #72751A",
"$  c #70741A",
"%  c #73761B",
"&  c #72761B",
"*  c #74771C",
"=  c #75781E",
"-  c #73761C",
";  c #717419",
":  c #75781F",
">  c #7A7E33",
",  c #73771F",
"<  c #7B7921",
"1  c #8B7F2A",
"2  c #78781E",
"3  c #74771D",
"4  c #757822",
"5  c #7C7F3A",
"6  c #72761D",
"7  c #838240",
"8  c #8A8956",
"9  c #757826",
"0  c #74761C",
"q  c #8F8229",
"w  c #7F7922",
"e  c #7D7A20",
"r  c #72761E",
"t  c #878649",
"y  c #878856",
"u  c #747823",
"i  c #767827",
"p  c #80813F",
"a  c #747722",
"s  c #78771E",
"d  c #71751C",
"f  c #787B31",
"g  c #85854A",
"h  c #8D8A57",
"j  c #777826",
"k  c #707419",
"l  c #747623",
"z  c #7D7E37",
"x  c #70741B",
"c  c #73761D",
"v  c #72761C",
"b  c #747721",
"n  c #7A7E32",
"m  c #76792B",
"M  c #7B7F3E",
"N  c #767922",
"B  c #787B24",
"V  c #77771D",
"C  c #73751B",
"Z  c #83823E",
"A  c #81813C",
"S  c #8C7E29",
"D  c #92842B",
"F  c #75771C",
"G  c #74781E",
"H  c #72741B",
"J  c #757722",
"K  c #7C7D35",
"L  c #72751E",
"P  c #74751C",
"I  c #7A791F",
"U  c #74771F",
"Y  c #83854B",
"T  c #7C7E36",
"R  c #7E7E35",
"E  c #7C7E3C",
"W  c #848447",
"Q  c #72751D",
"!  c #71751A",
"~  c #898127",
"^  c #79781E",
"/  c #837C24",
"(  c #837B24",
")  c #7C7B21",
"_  c #797A1F",
"`  c #797B2A",
"'  c #767924",
"]  c #867E25",
"[  c #857D25",
"{  c #75761D",
"}  c #828240",
"|  c #777A29",
" . c #8E802A",
".. c #7C7820",
"X. c #797D2E",
"o. c #7D7E2C",
"O. c #797B28",
"+. c #73761A",
"@. c #7B7A1F",
"#. c #847E24",
"$. c #74761F",
"%. c #89874B",
"&. c #7B7D36",
"*. c #7F7F38",
"=. c #7C7D33",
"-. c #7A7D30",
";. c #757923",
":. c #76781D",
">. c #7D7B21",
",. c #7F8147",
"<. c #7F8245",
"1. c #7C7921",
"2. c #75781D",
"3. c white",
/* pixels */
"    . X o O +                       . X @ #                     ",
"      + $ +                           .                         ",
"                                                      + +       ",
"                                      + + +         +           ",
"+             + + +                   % &     X     + * = -   + ",
"    +       +       ; +             + : > , + #   @ + < 1 2 + + ",
"3   .       +   = 4 5 6 +         # + 7 8 9 +     + 0 q w e   - ",
"O +     + + . X r t y u +           + i p a +   + +   s   + + d ",
"  +   +     + + f g h j +     + +     + k +   +     + + +   + @ ",
"+   +   3 - + . l z 9 + #   +     +       +   - 3   +         # ",
"      @ x +     + ; +       + - o 3   +   .   c @ +             ",
"      # #                     + @ v         + + +               ",
"                                + + +                           ",
"      + +                       + - % +                         ",
"    + - 3 - +           +       + b n 3   +                     ",
"    . X d @ #     +   3 -   +   + m M + . +       + # + +       ",
"      + + +         + @ X @ #   # @ + +     +   +   - 0   +     ",
"                + +   + + +     @     + v v +   + & N B   +     ",
"            +   V C         +   #   # # @ X     + X Z A ;       ",
"            +   S D F +     + - G - c H + +   + + J K L +       ",
"              + P I   +     + U Y T R       + - - + + +         ",
"                + + +       # + E W Q       +     +             ",
"              + +           X +   Q + #       + +       + +     ",
"            +     +             + +                   +   - +   ",
"            +   -           X 3   ! + + + +           +   - +   ",
"    + + + + +   X +     + . + - ~ ^ +   -   +           + +     ",
"  +     - % + + +       + + @   / (   ) _ & + + + + +           ",
"  + X v 3 - + + + +   + ` ' + + $ @   ] [ { +   % #   +         ",
"+   - $ X X H       + + } | +   +   3 0  ...+ 0 B X.Q +         ",
"+   -   + + # o.O.+.%   @ +   + + + $ @.#.$ + $.%.&.Q +         ",
"  + + +     + *.=.-.;.# # +   :.>.  . @ @ -     l @ +           ",
"            # + d ,.<.b +   + - 1.H .   2.-   + + +             "
};
