/* XPM */
static const char *UGxheWVyKyUyODElMjk_[] = {
/* columns rows colors chars-per-pixel */
"32 32 36 1 ",
"  c #2E1E22",
". c #3D2D26",
"X c #323234",
"o c #462F26",
"O c #72751B",
"+ c #72751C",
"@ c #74771D",
"# c #78771E",
"$ c #76781D",
"% c #78781E",
"& c #534721",
"* c #6E5E2C",
"= c #69423A",
"- c #747721",
"; c #757923",
": c #7B7921",
"> c #7D7B21",
", c #797B28",
"< c #7D7E2C",
"1 c #7A7D30",
"2 c #7C7D33",
"3 c #7F7F38",
"4 c #545456",
"5 c #77584A",
"6 c #7C5E4F",
"7 c #767678",
"8 c #8B7F2A",
"9 c #8B5E4A",
"0 c #A77E5D",
"q c #8A7461",
"w c #7F8147",
"e c #8F8229",
"r c #979799",
"t c #B7B7BB",
"y c #D2D2D6",
"u c white",
/* pixels */
"OOOO++OOOOOOXXXXXXXOOOOOOOOOOOOO",
"OOOOOOOOOOXX4477744XXOOOOOOOOOOO",
"OOOOOOOOOX477rrrrr774XOOOOOOOOOO",
"OOOOOOOOX47rrrtttrrr74XOOOOOOOOO",
"OOOOOOOX47rrrtttttrrr74XOOO@$+OO",
"OOOOOOX47rrrtttttttrrr74XOO:8%OO",
"@OOOOOX77rrrtttttttrrr77XO@e>>O+",
"+OOOOX47rrrrrtttttrrrrr74XO#OOO+",
"OrOOOX47XX477rrrrr774XX74XOOOOOO",
"OrrO@X4X4rXX4444444XXr4X4XOOOOOO",
"OrurX7X477rrtttttttrr774X7XOOOOO",
"OrutX7X44 477rrrrr774 44X7XOOOOO",
"Oruur4X4r4           4r4X4XOOOOO",
"OruurXX47r4         4r74XXXOOOOO",
"OryurXXX47rrtttttttrr74XXXOOOOOO",
"OryutX44XX477rrrrr774XX44XOOOOOO",
"OOruurX47X=6qqqqqqq6=X74XO+@OOOO",
"OOruur4XXX.o=66666=o.XXX4X;XXXOO",
"OOryurrtt74.........47ttXXX47XOO",
"OOryutrrt4X47r777r74XXXX4r774XOO",
"OOOruuXXXX7rttrrrttr7X7rt4&*4XOO",
"OOOruu4rrX7rr74447rr7X7*&*&*4XOO",
"OOX47rr4XXXX447r744XXX7*&*474XOO",
"OX7rr44XXX44XX444XX44X7rtr744XOO",
"OOXXX99XX47t74ttt47t7X7rr7&*4XOO",
"OOOOO&&OX4rtX7rtr7XtrX7*&*&*4XOO",
"OOOO+OOOOXrX4X7r7X4XrX7r&*&*4XOO",
"OOO+@+OOOOX4t7XXX7t4X@X4r*&4XOOO",
"OO+OOOOOOO&995&O&599&>OX4r7XOOOO",
"OO+OOOO<,O&009&O&900&OO@XXXOOOOO",
"OOOOOOO321;&&&O$>&&&O+OO-OOOOOOO",
"OOOOOOOO+ww-OOO+>OOO$+OOOOOOOOOO"
};
