/* XPM */
static const char *V2FsbA__[] = {
/* columns rows colors chars-per-pixel */
"32 32 64 1 ",
"  c #543415",
". c #583715",
"X c #553816",
"o c #5A3D16",
"O c #5C4217",
"+ c #5E4419",
"@ c #585213",
"# c #555916",
"$ c #5A5D17",
"% c #5A5E18",
"& c #604619",
"* c #654B1A",
"= c #655B19",
"- c #685E1A",
"; c #5D6018",
": c #626519",
"> c #676A1A",
", c #6B6E1B",
"< c #766916",
"1 c #6E701B",
"2 c #72751B",
"3 c #7D741E",
"4 c #76781E",
"5 c #7A791E",
"6 c #6F6F21",
"7 c #6F7021",
"8 c #717221",
"9 c #777722",
"0 c #787722",
"q c #757923",
"w c #7B7A23",
"e c #7D7B21",
"r c #7F7E23",
"t c #7B7B25",
"y c #777A29",
"u c #797928",
"i c #7C7A29",
"p c #797D2E",
"a c #7D7E2C",
"s c #7A7D30",
"d c #7C7D33",
"f c #7B7D36",
"g c #7F7F38",
"h c #80741E",
"j c #807F23",
"k c #837B24",
"l c #847E24",
"z c #8B7F2A",
"x c #7F8246",
"c c #838223",
"v c #838224",
"b c #848224",
"n c #878429",
"m c #87842D",
"M c #8E802A",
"N c #888429",
"B c #8A872E",
"V c #888331",
"C c #8B8632",
"Z c #8C8733",
"A c #8D8833",
"S c #8F8934",
"D c #828240",
"F c #89874B",
/* pixels */
"22222222222222222222222222222222",
"22222222222222222222222222222222",
"22222222222222222222222222222222",
"222222222222222***22222222222222",
"22222222222222*ZZZ*2222222244222",
"2222222222***2*AZZ*4*&22222wz522",
"422222224*AAA*vAAcc*99&2224Mee22",
"222222222*AAAbbvvcc0999&22252222",
"222222***vbbbbbbbvcw099&22222222",
"22224*ZZAABB4bSAAvcc09==&&+22222",
"22222*ZZAANB44SSAAcc4-==,,,+2222",
"222222*AANN4444SAAc4422=,,,+2222",
"2222222*cn<<BB44AA444cjr=,&22222",
"22222**ccv<bBBB44544ZCCr1&222222",
"2222&mBBAcvbBBBh3344CCC2,,++2222",
"2222&CCZZccAAv3333ZZCC21,,,,+222",
"2222&CCC22AAAccc3ZZCjrrr,,,,#O22",
"22222&ww22ZZ,ccccZCCrrrr,,,##+22",
"2222&wtwCCC,>ZZZccjrrCCr,==#O222",
"222&>99wCCC>>CCC1jr1CCV,,##+2222",
"222+>>>>CC1>>CC11111CV,,,###O222",
"222+78>::111111=11,,##,,#####O22",
"222O68>:,,,,,,1$$,,,@@###%$$$O22",
"2222OO::uuu;,,%$$,,@@@###$$$O222",
"222222Oiuuu%==$$$=@@@::##$$o2222",
"222222Ouuuo%%%$##X##:::oooo22222",
"2222222ooo2o$$#.Xk #::.222222222",
"222242222222...2222  .2222222222",
"222222222222Dy222244Me24tp222222",
"2222222au22222222225l224Ff222222",
"2222222gdsq22224e222222292222222",
"222222222xx92222e222422222222222"
};
